<mxfile host="app.diagrams.net" agent="Mozilla/5.0 (Macintosh; Intel Mac OS X 10_15_7) AppleWebKit/605.1.15 (KHTML, like Gecko) Version/17.6 Safari/605.1.15" version="25.0.1">
  <diagram name="Page-1" id="gcOh2L13ghurHqlArtQZ">
    <mxGraphModel dx="986" dy="580" grid="1" gridSize="10" guides="1" tooltips="1" connect="1" arrows="1" fold="1" page="1" pageScale="1" pageWidth="827" pageHeight="1169" background="#ffffff" math="0" shadow="0">
      <root>
        <mxCell id="0" />
        <mxCell id="1" parent="0" />
        <mxCell id="pkoyU2fwOPBfZemE1w7x-70" style="edgeStyle=orthogonalEdgeStyle;rounded=0;orthogonalLoop=1;jettySize=auto;html=1;exitX=0.5;exitY=1;exitDx=0;exitDy=0;entryX=0.5;entryY=0;entryDx=0;entryDy=0;" edge="1" parent="1" source="pkoyU2fwOPBfZemE1w7x-62" target="pkoyU2fwOPBfZemE1w7x-63">
          <mxGeometry relative="1" as="geometry" />
        </mxCell>
        <mxCell id="pkoyU2fwOPBfZemE1w7x-62" value="Start" style="ellipse;whiteSpace=wrap;html=1;" vertex="1" parent="1">
          <mxGeometry x="320" y="80" width="120" height="40" as="geometry" />
        </mxCell>
        <mxCell id="pkoyU2fwOPBfZemE1w7x-71" style="edgeStyle=orthogonalEdgeStyle;rounded=0;orthogonalLoop=1;jettySize=auto;html=1;exitX=0.5;exitY=1;exitDx=0;exitDy=0;entryX=0.5;entryY=0;entryDx=0;entryDy=0;" edge="1" parent="1" source="pkoyU2fwOPBfZemE1w7x-63" target="pkoyU2fwOPBfZemE1w7x-103">
          <mxGeometry relative="1" as="geometry">
            <mxPoint x="380" y="240" as="targetPoint" />
          </mxGeometry>
        </mxCell>
        <mxCell id="pkoyU2fwOPBfZemE1w7x-63" value="s: string" style="shape=parallelogram;perimeter=parallelogramPerimeter;whiteSpace=wrap;html=1;fixedSize=1;" vertex="1" parent="1">
          <mxGeometry x="320" y="160" width="120" height="40" as="geometry" />
        </mxCell>
        <mxCell id="pkoyU2fwOPBfZemE1w7x-105" style="edgeStyle=orthogonalEdgeStyle;rounded=0;orthogonalLoop=1;jettySize=auto;html=1;exitX=0.5;exitY=1;exitDx=0;exitDy=0;entryX=0.5;entryY=0;entryDx=0;entryDy=0;" edge="1" parent="1" source="pkoyU2fwOPBfZemE1w7x-103" target="pkoyU2fwOPBfZemE1w7x-114">
          <mxGeometry relative="1" as="geometry">
            <mxPoint x="380" y="315" as="targetPoint" />
          </mxGeometry>
        </mxCell>
        <mxCell id="pkoyU2fwOPBfZemE1w7x-107" value="No" style="edgeLabel;html=1;align=center;verticalAlign=middle;resizable=0;points=[];" vertex="1" connectable="0" parent="pkoyU2fwOPBfZemE1w7x-105">
          <mxGeometry x="-0.0947" relative="1" as="geometry">
            <mxPoint as="offset" />
          </mxGeometry>
        </mxCell>
        <mxCell id="pkoyU2fwOPBfZemE1w7x-108" style="edgeStyle=orthogonalEdgeStyle;rounded=0;orthogonalLoop=1;jettySize=auto;html=1;exitX=1;exitY=0.5;exitDx=0;exitDy=0;entryX=0;entryY=0.5;entryDx=0;entryDy=0;" edge="1" parent="1" source="pkoyU2fwOPBfZemE1w7x-103" target="pkoyU2fwOPBfZemE1w7x-106">
          <mxGeometry relative="1" as="geometry" />
        </mxCell>
        <mxCell id="pkoyU2fwOPBfZemE1w7x-109" value="Yes" style="edgeLabel;html=1;align=center;verticalAlign=middle;resizable=0;points=[];" vertex="1" connectable="0" parent="pkoyU2fwOPBfZemE1w7x-108">
          <mxGeometry x="0.1223" y="1" relative="1" as="geometry">
            <mxPoint as="offset" />
          </mxGeometry>
        </mxCell>
        <mxCell id="pkoyU2fwOPBfZemE1w7x-103" value="len(s) == 0" style="rhombus;whiteSpace=wrap;html=1;fontSize=10;" vertex="1" parent="1">
          <mxGeometry x="320" y="240" width="120" height="40" as="geometry" />
        </mxCell>
        <mxCell id="pkoyU2fwOPBfZemE1w7x-111" style="edgeStyle=orthogonalEdgeStyle;rounded=0;orthogonalLoop=1;jettySize=auto;html=1;exitX=1;exitY=0.5;exitDx=0;exitDy=0;entryX=0;entryY=0.5;entryDx=0;entryDy=0;" edge="1" parent="1" source="pkoyU2fwOPBfZemE1w7x-106" target="pkoyU2fwOPBfZemE1w7x-110">
          <mxGeometry relative="1" as="geometry" />
        </mxCell>
        <mxCell id="pkoyU2fwOPBfZemE1w7x-106" value="&quot;&quot;" style="shape=parallelogram;perimeter=parallelogramPerimeter;whiteSpace=wrap;html=1;fixedSize=1;" vertex="1" parent="1">
          <mxGeometry x="470" y="240" width="120" height="40" as="geometry" />
        </mxCell>
        <mxCell id="pkoyU2fwOPBfZemE1w7x-110" value="End" style="ellipse;whiteSpace=wrap;html=1;" vertex="1" parent="1">
          <mxGeometry x="620" y="240" width="120" height="40" as="geometry" />
        </mxCell>
        <mxCell id="pkoyU2fwOPBfZemE1w7x-117" style="edgeStyle=orthogonalEdgeStyle;rounded=0;orthogonalLoop=1;jettySize=auto;html=1;exitX=0.5;exitY=1;exitDx=0;exitDy=0;entryX=0.5;entryY=0;entryDx=0;entryDy=0;" edge="1" parent="1" source="pkoyU2fwOPBfZemE1w7x-114" target="pkoyU2fwOPBfZemE1w7x-116">
          <mxGeometry relative="1" as="geometry" />
        </mxCell>
        <mxCell id="pkoyU2fwOPBfZemE1w7x-114" value="l = s.split(&quot; &quot;)" style="rounded=0;whiteSpace=wrap;html=1;" vertex="1" parent="1">
          <mxGeometry x="320" y="320" width="120" height="40" as="geometry" />
        </mxCell>
        <mxCell id="pkoyU2fwOPBfZemE1w7x-119" style="edgeStyle=orthogonalEdgeStyle;rounded=0;orthogonalLoop=1;jettySize=auto;html=1;exitX=0.5;exitY=1;exitDx=0;exitDy=0;entryX=0.5;entryY=0;entryDx=0;entryDy=0;" edge="1" parent="1" source="pkoyU2fwOPBfZemE1w7x-116" target="pkoyU2fwOPBfZemE1w7x-118">
          <mxGeometry relative="1" as="geometry" />
        </mxCell>
        <mxCell id="pkoyU2fwOPBfZemE1w7x-116" value="i = 0" style="rounded=0;whiteSpace=wrap;html=1;" vertex="1" parent="1">
          <mxGeometry x="320" y="400" width="120" height="40" as="geometry" />
        </mxCell>
        <mxCell id="pkoyU2fwOPBfZemE1w7x-120" style="edgeStyle=orthogonalEdgeStyle;rounded=0;orthogonalLoop=1;jettySize=auto;html=1;exitX=1;exitY=0.5;exitDx=0;exitDy=0;entryX=0;entryY=0.5;entryDx=0;entryDy=0;" edge="1" parent="1" source="pkoyU2fwOPBfZemE1w7x-118" target="pkoyU2fwOPBfZemE1w7x-123">
          <mxGeometry relative="1" as="geometry">
            <mxPoint x="490" y="500" as="targetPoint" />
          </mxGeometry>
        </mxCell>
        <mxCell id="pkoyU2fwOPBfZemE1w7x-121" value="No" style="edgeLabel;html=1;align=center;verticalAlign=middle;resizable=0;points=[];" vertex="1" connectable="0" parent="pkoyU2fwOPBfZemE1w7x-120">
          <mxGeometry x="-0.2479" y="-2" relative="1" as="geometry">
            <mxPoint x="-2" y="2" as="offset" />
          </mxGeometry>
        </mxCell>
        <mxCell id="pkoyU2fwOPBfZemE1w7x-130" value="Yes" style="edgeStyle=orthogonalEdgeStyle;rounded=0;orthogonalLoop=1;jettySize=auto;html=1;exitX=0.5;exitY=1;exitDx=0;exitDy=0;entryX=0.5;entryY=0;entryDx=0;entryDy=0;" edge="1" parent="1" source="pkoyU2fwOPBfZemE1w7x-118">
          <mxGeometry relative="1" as="geometry">
            <mxPoint x="380" y="560" as="targetPoint" />
          </mxGeometry>
        </mxCell>
        <mxCell id="pkoyU2fwOPBfZemE1w7x-118" value="i &amp;lt; len(l)" style="rhombus;whiteSpace=wrap;html=1;fontSize=10;" vertex="1" parent="1">
          <mxGeometry x="320" y="480" width="120" height="40" as="geometry" />
        </mxCell>
        <mxCell id="pkoyU2fwOPBfZemE1w7x-127" style="edgeStyle=orthogonalEdgeStyle;rounded=0;orthogonalLoop=1;jettySize=auto;html=1;exitX=1;exitY=0.5;exitDx=0;exitDy=0;entryX=0;entryY=0.5;entryDx=0;entryDy=0;" edge="1" parent="1" source="pkoyU2fwOPBfZemE1w7x-123" target="pkoyU2fwOPBfZemE1w7x-126">
          <mxGeometry relative="1" as="geometry" />
        </mxCell>
        <mxCell id="pkoyU2fwOPBfZemE1w7x-123" value="&quot; &quot;.join(l)" style="shape=parallelogram;perimeter=parallelogramPerimeter;whiteSpace=wrap;html=1;fixedSize=1;" vertex="1" parent="1">
          <mxGeometry x="470" y="480" width="120" height="40" as="geometry" />
        </mxCell>
        <mxCell id="pkoyU2fwOPBfZemE1w7x-126" value="End" style="ellipse;whiteSpace=wrap;html=1;" vertex="1" parent="1">
          <mxGeometry x="620" y="480" width="120" height="40" as="geometry" />
        </mxCell>
        <mxCell id="pkoyU2fwOPBfZemE1w7x-133" style="edgeStyle=orthogonalEdgeStyle;rounded=0;orthogonalLoop=1;jettySize=auto;html=1;exitX=0;exitY=0.5;exitDx=0;exitDy=0;entryX=1;entryY=0.5;entryDx=0;entryDy=0;" edge="1" parent="1" source="pkoyU2fwOPBfZemE1w7x-131" target="pkoyU2fwOPBfZemE1w7x-132">
          <mxGeometry relative="1" as="geometry" />
        </mxCell>
        <mxCell id="pkoyU2fwOPBfZemE1w7x-134" value="Yes" style="edgeLabel;html=1;align=center;verticalAlign=middle;resizable=0;points=[];" vertex="1" connectable="0" parent="pkoyU2fwOPBfZemE1w7x-133">
          <mxGeometry x="-0.3101" relative="1" as="geometry">
            <mxPoint x="-3" as="offset" />
          </mxGeometry>
        </mxCell>
        <mxCell id="pkoyU2fwOPBfZemE1w7x-137" style="edgeStyle=orthogonalEdgeStyle;rounded=0;orthogonalLoop=1;jettySize=auto;html=1;exitX=0.5;exitY=1;exitDx=0;exitDy=0;entryX=0.5;entryY=0;entryDx=0;entryDy=0;" edge="1" parent="1" source="pkoyU2fwOPBfZemE1w7x-131" target="pkoyU2fwOPBfZemE1w7x-136">
          <mxGeometry relative="1" as="geometry" />
        </mxCell>
        <mxCell id="pkoyU2fwOPBfZemE1w7x-139" value="No" style="edgeLabel;html=1;align=center;verticalAlign=middle;resizable=0;points=[];" vertex="1" connectable="0" parent="pkoyU2fwOPBfZemE1w7x-137">
          <mxGeometry x="-0.0998" y="1" relative="1" as="geometry">
            <mxPoint as="offset" />
          </mxGeometry>
        </mxCell>
        <mxCell id="pkoyU2fwOPBfZemE1w7x-131" value="len(l[i]) &amp;lt; 5" style="rhombus;whiteSpace=wrap;html=1;fontSize=10;" vertex="1" parent="1">
          <mxGeometry x="320" y="560" width="120" height="40" as="geometry" />
        </mxCell>
        <mxCell id="pkoyU2fwOPBfZemE1w7x-135" style="edgeStyle=orthogonalEdgeStyle;rounded=0;orthogonalLoop=1;jettySize=auto;html=1;exitX=0.5;exitY=0;exitDx=0;exitDy=0;" edge="1" parent="1" source="pkoyU2fwOPBfZemE1w7x-132">
          <mxGeometry relative="1" as="geometry">
            <mxPoint x="380" y="460" as="targetPoint" />
            <Array as="points">
              <mxPoint x="220" y="460" />
            </Array>
          </mxGeometry>
        </mxCell>
        <mxCell id="pkoyU2fwOPBfZemE1w7x-132" value="i += 1" style="rounded=0;whiteSpace=wrap;html=1;" vertex="1" parent="1">
          <mxGeometry x="160" y="560" width="120" height="40" as="geometry" />
        </mxCell>
        <mxCell id="pkoyU2fwOPBfZemE1w7x-138" style="edgeStyle=orthogonalEdgeStyle;rounded=0;orthogonalLoop=1;jettySize=auto;html=1;exitX=0;exitY=0.5;exitDx=0;exitDy=0;entryX=0.5;entryY=1;entryDx=0;entryDy=0;" edge="1" parent="1" source="pkoyU2fwOPBfZemE1w7x-136" target="pkoyU2fwOPBfZemE1w7x-132">
          <mxGeometry relative="1" as="geometry" />
        </mxCell>
        <mxCell id="pkoyU2fwOPBfZemE1w7x-136" value="l[i] = l[i][::-1]" style="rounded=0;whiteSpace=wrap;html=1;" vertex="1" parent="1">
          <mxGeometry x="320" y="640" width="120" height="40" as="geometry" />
        </mxCell>
      </root>
    </mxGraphModel>
  </diagram>
</mxfile>
